<?xml version="1.0" encoding="UTF-8"?>
<!DOCTYPE svg PUBLIC "-//W3C//DTD SVG 1.1//EN" "http://www.w3.org/Graphics/SVG/1.1/DTD/svg11.dtd">
<svg xmlns="http://www.w3.org/2000/svg" version="1.1" width="2000px" height="879px" style="shape-rendering:geometricPrecision; text-rendering:geometricPrecision; image-rendering:optimizeQuality; fill-rule:evenodd; clip-rule:evenodd" xmlns:xlink="http://www.w3.org/1999/xlink">
<g><path style="opacity:0.984" fill="#fe0007" d="M 441.5,-0.5 C 454.833,-0.5 468.167,-0.5 481.5,-0.5C 524.6,3.70013 564.6,17.2001 601.5,40C 649.346,74.8356 675.513,122.002 680,181.5C 683.316,232.592 674.649,281.592 654,328.5C 623.751,393.762 582.251,450.929 529.5,500C 484.682,539.398 437.349,575.398 387.5,608C 360.894,624.636 332.894,638.636 303.5,650C 274.735,661.303 245.068,665.303 214.5,662C 183.043,652.545 164.21,631.711 158,599.5C 155.751,580.247 158.084,561.58 165,543.5C 176.311,510.517 193.478,481.183 216.5,455.5C 229.567,441.936 244.901,431.769 262.5,425C 288.076,416.958 312.409,419.625 335.5,433C 349.611,444.21 352.778,458.044 345,474.5C 341.496,480.844 337.496,486.844 333,492.5C 312.695,513.805 292.029,534.805 271,555.5C 255.289,571.544 242.289,589.544 232,609.5C 225.989,631.827 234.489,641.327 257.5,638C 274.63,634.179 290.963,628.179 306.5,620C 379.749,579.451 444.916,528.284 502,466.5C 527.696,438.782 548.696,407.782 565,373.5C 576.144,347.068 582.978,319.568 585.5,291C 584.709,268.661 578.876,247.828 568,228.5C 554.133,207.804 534.633,197.804 509.5,198.5C 485.397,201.109 462.397,207.609 440.5,218C 409.876,232.305 380.543,248.638 352.5,267C 318.662,289.085 284.995,311.418 251.5,334C 222.727,356.107 193.393,377.44 163.5,398C 143.791,410.347 122.458,418.347 99.5,422C 74.923,424.358 52.923,418.025 33.5,403C 15.7216,389.594 4.38828,372.094 -0.5,350.5C -0.5,339.167 -0.5,327.833 -0.5,316.5C 6.1229,286.807 18.6229,259.807 37,235.5C 69.2346,190.932 107.735,152.765 152.5,121C 226.164,66.3429 307.831,28.0096 397.5,6C 412.249,3.39373 426.915,1.22706 441.5,-0.5 Z"/></g>
<g><path style="opacity:0.964" fill="#fe0007" d="M 1118.5,116.5 C 1147.46,113.213 1166.62,125.213 1176,152.5C 1180.61,178.449 1171.44,197.616 1148.5,210C 1123.85,218.548 1103.35,212.715 1087,192.5C 1073.79,167.25 1077.62,145.083 1098.5,126C 1104.74,121.763 1111.41,118.596 1118.5,116.5 Z"/></g>
<g><path style="opacity:0.966" fill="#fe0007" d="M 1504.5,153.5 C 1505.82,153.33 1506.99,153.663 1508,154.5C 1508.5,181.831 1508.67,209.165 1508.5,236.5C 1524.83,236.5 1541.17,236.5 1557.5,236.5C 1558.76,255.85 1558.76,275.184 1557.5,294.5C 1541.17,294.5 1524.83,294.5 1508.5,294.5C 1508.02,352.538 1508.52,410.538 1510,468.5C 1514.22,480.721 1522.72,487.887 1535.5,490C 1542.82,490.721 1550.16,491.221 1557.5,491.5C 1558.77,507.523 1558.77,523.523 1557.5,539.5C 1533.33,544.048 1509.33,543.215 1485.5,537C 1452.66,525.826 1434.16,502.993 1430,468.5C 1428.37,367.847 1428.03,267.181 1429,166.5C 1454.25,162.097 1479.42,157.764 1504.5,153.5 Z"/></g>
<g><path style="opacity:0.977" fill="#fe0007" d="M 1999.5,491.5 C 1999.5,507.833 1999.5,524.167 1999.5,540.5C 1970.21,546.754 1941.88,543.921 1914.5,532C 1889.71,516.944 1876.21,494.777 1874,465.5C 1873.5,365.501 1873.33,265.501 1873.5,165.5C 1899.15,161.391 1924.82,157.391 1950.5,153.5C 1950.31,257.17 1950.81,360.837 1952,464.5C 1954.66,479.822 1963.83,488.322 1979.5,490C 1986.14,490.952 1992.8,491.452 1999.5,491.5 Z"/></g>
<g><path style="opacity:0.974" fill="#fe0007" d="M 907.5,231.5 C 940.987,228.157 971.654,235.657 999.5,254C 1019.82,271.469 1030.98,293.635 1033,320.5C 1033.29,370.169 1033.79,419.836 1034.5,469.5C 1034.61,478.89 1034.11,488.224 1033,497.5C 1030.54,500.965 1027.7,504.131 1024.5,507C 985.739,535.947 942.073,548.613 893.5,545C 849.328,540.677 817.828,518.511 799,478.5C 784.309,438.114 791.476,402.28 820.5,371C 841.585,353.52 865.918,343.853 893.5,342C 914.162,340.389 934.828,340.222 955.5,341.5C 956.158,329.628 954.991,317.962 952,306.5C 946.374,295.228 937.207,289.061 924.5,288C 901.337,286.499 879.004,290.165 857.5,299C 850.278,302.445 842.945,305.611 835.5,308.5C 834.558,308.392 833.725,308.059 833,307.5C 825.814,293.296 819.314,278.796 813.5,264C 822.143,258.007 831.477,253.007 841.5,249C 862.813,240.046 884.813,234.212 907.5,231.5 Z M 913.5,394.5 C 927.504,394.333 941.504,394.5 955.5,395C 955.649,423.294 955.482,451.794 955,480.5C 953.199,483.163 950.699,484.997 947.5,486C 932.13,491.869 916.463,492.869 900.5,489C 888.936,484.435 881.102,476.268 877,464.5C 871.292,447.554 872.626,431.22 881,415.5C 889.037,404.071 899.87,397.071 913.5,394.5 Z"/></g>
<g><path style="opacity:0.963" fill="#fe0007" d="M 1351.5,231.5 C 1370.31,231.302 1388.65,234.136 1406.5,240C 1408.18,240.347 1409.18,241.347 1409.5,243C 1402.65,258.529 1395.65,274.029 1388.5,289.5C 1387.83,289.833 1387.17,290.167 1386.5,290.5C 1359.59,284.196 1334.25,288.03 1310.5,302C 1308.62,303.543 1307.12,305.376 1306,307.5C 1305.5,385.166 1305.33,462.833 1305.5,540.5C 1279.17,540.5 1252.83,540.5 1226.5,540.5C 1225.85,498.684 1225.51,456.851 1225.5,415C 1225.34,373.455 1225.84,331.955 1227,290.5C 1260.64,254.264 1302.14,234.598 1351.5,231.5 Z"/></g>
<g><path style="opacity:0.972" fill="#fe0007" d="M 1702.5,233.5 C 1766.56,230.754 1806.06,260.42 1821,322.5C 1825.32,346.991 1827.65,371.658 1828,396.5C 1773.72,398.493 1719.22,399.16 1664.5,398.5C 1660.3,479.773 1696.96,507.607 1774.5,482C 1785.67,477.499 1796.5,472.332 1807,466.5C 1815.65,480.287 1823.15,494.787 1829.5,510C 1785.57,541.256 1736.9,552.256 1683.5,543C 1642.31,532.819 1613.81,507.986 1598,468.5C 1581.73,426.075 1579.07,382.742 1590,338.5C 1596.51,308.303 1610.68,282.47 1632.5,261C 1652.69,243.737 1676.02,234.57 1702.5,233.5 Z M 1703.5,291.5 C 1725.48,290.635 1738.98,300.969 1744,322.5C 1745.87,331.14 1746.87,339.807 1747,348.5C 1720.24,349.495 1693.41,349.828 1666.5,349.5C 1666.99,332.518 1672.16,317.185 1682,303.5C 1688,297.255 1695.16,293.255 1703.5,291.5 Z"/></g>
<g><path style="opacity:0.968" fill="#fe0007" d="M 1164.5,236.5 C 1166.5,337.495 1167.16,438.828 1166.5,540.5C 1140.93,540.828 1115.43,540.495 1090,539.5C 1089.33,442.833 1089.33,346.167 1090,249.5C 1114.94,245.205 1139.77,240.872 1164.5,236.5 Z"/></g>
<g><path style="opacity:0.929" fill="#fed200" d="M 1033.5,662.5 C 1056.37,660.847 1072.87,670.181 1083,690.5C 1097.9,666.641 1119.06,658.141 1146.5,665C 1166,673.779 1176.83,688.945 1179,710.5C 1179.5,744.498 1179.67,778.498 1179.5,812.5C 1170.5,812.5 1161.5,812.5 1152.5,812.5C 1152.92,779.81 1152.42,747.144 1151,714.5C 1147.06,691.788 1133.9,682.955 1111.5,688C 1101.18,692.323 1094.34,699.823 1091,710.5C 1089.7,744.127 1089.03,777.794 1089,811.5C 1079.92,812.485 1070.75,812.818 1061.5,812.5C 1061.67,780.165 1061.5,747.832 1061,715.5C 1055.82,688.632 1040.65,680.465 1015.5,691C 1007.11,697.605 1001.61,706.105 999,716.5C 998.5,748.498 998.333,780.498 998.5,812.5C 989.167,812.5 979.833,812.5 970.5,812.5C 970.828,767.791 970.495,723.124 969.5,678.5C 971.86,667.99 978.194,664.156 988.5,667C 990.333,668.833 992.167,670.667 994,672.5C 994.749,677.489 995.415,682.489 996,687.5C 1004.83,673.512 1017.33,665.178 1033.5,662.5 Z"/></g>
<g><path style="opacity:0.927" fill="#fed200" d="M 1274.5,662.5 C 1325.49,662.151 1352.15,687.485 1354.5,738.5C 1354.72,776.963 1336.72,802.13 1300.5,814C 1272.45,820.449 1248.28,813.615 1228,793.5C 1211.34,770.256 1206.34,744.589 1213,716.5C 1222.12,685.381 1242.62,667.381 1274.5,662.5 Z M 1274.5,684.5 C 1296.54,682.099 1311.71,691.099 1320,711.5C 1328.32,733.964 1326.65,755.631 1315,776.5C 1301.44,794.416 1284.28,798.916 1263.5,790C 1249.97,780.794 1242.14,767.961 1240,751.5C 1237.64,735.414 1239.97,720.08 1247,705.5C 1253.23,694.487 1262.4,687.487 1274.5,684.5 Z"/></g>
<g><path style="opacity:0.934" fill="#fed200" d="M 1451.5,662.5 C 1487.94,662.099 1507.77,680.099 1511,716.5C 1511.5,748.498 1511.67,780.498 1511.5,812.5C 1502.17,812.5 1492.83,812.5 1483.5,812.5C 1483.67,783.498 1483.5,754.498 1483,725.5C 1483.32,712.318 1478.82,701.151 1469.5,692C 1443.06,680.47 1424.89,688.303 1415,715.5C 1413.54,747.798 1413.04,780.131 1413.5,812.5C 1404.17,812.5 1394.83,812.5 1385.5,812.5C 1385.33,766.165 1385.5,719.832 1386,673.5C 1392.24,664.271 1399.58,663.271 1408,670.5C 1408.67,671.833 1409.33,673.167 1410,674.5C 1410.07,678.687 1410.74,682.687 1412,686.5C 1421.81,672.838 1434.97,664.838 1451.5,662.5 Z"/></g>
<g><path style="opacity:0.92" fill="#fed200" d="M 1602.5,662.5 C 1641.68,661.176 1664.51,679.842 1671,718.5C 1671.67,727.167 1671.67,735.833 1671,744.5C 1636.9,745.33 1602.74,745.83 1568.5,746C 1568.98,760.455 1574.32,772.788 1584.5,783C 1599.01,792.956 1615.01,796.29 1632.5,793C 1641.41,791.603 1650.08,789.603 1658.5,787C 1660.4,793.083 1662.06,799.25 1663.5,805.5C 1662.91,806.799 1661.91,807.632 1660.5,808C 1637.63,815.936 1614.29,817.603 1590.5,813C 1563.64,804.472 1547.81,786.305 1543,758.5C 1538.65,732.251 1543.98,708.251 1559,686.5C 1570.63,673.106 1585.13,665.106 1602.5,662.5 Z M 1602.5,683.5 C 1623.88,681.597 1637.38,690.93 1643,711.5C 1643.74,715.813 1644.24,720.147 1644.5,724.5C 1619.5,724.5 1594.5,724.5 1569.5,724.5C 1571.79,703.494 1582.79,689.828 1602.5,683.5 Z"/></g>
<g><path style="opacity:0.92" fill="#fed200" d="M 1704.5,878.5 C 1702.17,878.5 1699.83,878.5 1697.5,878.5C 1695.5,870.821 1693.66,863.154 1692,855.5C 1711,848.175 1725.33,835.508 1735,817.5C 1736.61,814.128 1737.77,810.628 1738.5,807C 1720.07,759.87 1701.73,712.703 1683.5,665.5C 1693.75,665.181 1703.92,665.514 1714,666.5C 1728.25,703.656 1741.92,740.989 1755,778.5C 1766.74,740.946 1779.07,703.613 1792,666.5C 1801.75,665.514 1811.58,665.181 1821.5,665.5C 1807.04,706.385 1791.87,747.051 1776,787.5C 1768.03,809.112 1757.69,829.445 1745,848.5C 1734.42,862.6 1720.92,872.6 1704.5,878.5 Z"/></g>
</svg>
