<?xml version="1.0" encoding="UTF-8"?>
<!DOCTYPE svg PUBLIC "-//W3C//DTD SVG 1.1//EN" "http://www.w3.org/Graphics/SVG/1.1/DTD/svg11.dtd">
<svg xmlns="http://www.w3.org/2000/svg" version="1.1" width="2000px" height="2000px" style="shape-rendering:geometricPrecision; text-rendering:geometricPrecision; image-rendering:optimizeQuality; fill-rule:evenodd; clip-rule:evenodd" xmlns:xlink="http://www.w3.org/1999/xlink">
<g><path style="opacity:0.992" fill="#fec856" d="M 626.5,369.5 C 670.833,369.5 715.167,369.5 759.5,369.5C 759.333,486.834 759.5,604.167 760,721.5C 826.5,665 893,608.5 959.5,552C 996.832,551.5 1034.17,551.333 1071.5,551.5C 1071.5,575.167 1071.5,598.833 1071.5,622.5C 1043.83,622.333 1016.16,622.5 988.5,623C 948.622,657.051 908.622,690.884 868.5,724.5C 917.918,799.672 967.585,874.672 1017.5,949.5C 1043.49,950.5 1069.49,950.833 1095.5,950.5C 1095.5,974.167 1095.5,997.833 1095.5,1021.5C 1056.16,1021.83 1016.83,1021.5 977.5,1020.5C 922.819,937.127 867.652,854.127 812,771.5C 794.345,786.487 776.678,801.487 759,816.5C 758.5,861.165 758.333,905.832 758.5,950.5C 779.5,950.5 800.5,950.5 821.5,950.5C 821.5,974.167 821.5,997.833 821.5,1021.5C 756.5,1021.5 691.5,1021.5 626.5,1021.5C 626.5,997.833 626.5,974.167 626.5,950.5C 646.833,950.5 667.167,950.5 687.5,950.5C 687.5,780.5 687.5,610.5 687.5,440.5C 667.167,440.5 646.833,440.5 626.5,440.5C 626.5,416.833 626.5,393.167 626.5,369.5 Z"/></g>
<g><path style="opacity:0.997" fill="#fec856" d="M 407.5,434.5 C 431.833,434.5 456.167,434.5 480.5,434.5C 480.5,459.167 480.5,483.833 480.5,508.5C 456.167,508.5 431.833,508.5 407.5,508.5C 407.5,483.833 407.5,459.167 407.5,434.5 Z"/></g>
<g><path style="opacity:0.997" fill="#fec856" d="M 1245.5,434.5 C 1269.83,434.5 1294.17,434.5 1318.5,434.5C 1318.5,459.167 1318.5,483.833 1318.5,508.5C 1294.17,508.5 1269.83,508.5 1245.5,508.5C 1245.5,483.833 1245.5,459.167 1245.5,434.5 Z"/></g>
<g><path style="opacity:0.997" fill="#fec856" d="M 1797.5,434.5 C 1821.83,434.5 1846.17,434.5 1870.5,434.5C 1870.5,459.167 1870.5,483.833 1870.5,508.5C 1846.17,508.5 1821.83,508.5 1797.5,508.5C 1797.5,483.833 1797.5,459.167 1797.5,434.5 Z"/></g>
<g><path style="opacity:0.995" fill="#fec856" d="M 81.5,451.5 C 105.167,451.5 128.833,451.5 152.5,451.5C 152.5,484.833 152.5,518.167 152.5,551.5C 187.5,551.5 222.5,551.5 257.5,551.5C 257.5,575.167 257.5,598.833 257.5,622.5C 222.5,622.5 187.5,622.5 152.5,622.5C 152.333,698.834 152.5,775.167 153,851.5C 156.001,898.826 179.835,930.326 224.5,946C 233.629,948.799 242.962,949.966 252.5,949.5C 252.5,973.5 252.5,997.5 252.5,1021.5C 191.019,1020.35 142.852,994.682 108,944.5C 93.5688,921.541 84.9021,896.541 82,869.5C 81.5,787.167 81.3333,704.834 81.5,622.5C 61.1667,622.5 40.8333,622.5 20.5,622.5C 20.5,598.833 20.5,575.167 20.5,551.5C 40.8333,551.5 61.1667,551.5 81.5,551.5C 81.5,518.167 81.5,484.833 81.5,451.5 Z"/></g>
<g><path style="opacity:0.995" fill="#fec856" d="M 1471.5,451.5 C 1495.17,451.5 1518.83,451.5 1542.5,451.5C 1542.5,484.833 1542.5,518.167 1542.5,551.5C 1577.5,551.5 1612.5,551.5 1647.5,551.5C 1647.5,575.167 1647.5,598.833 1647.5,622.5C 1612.5,622.5 1577.5,622.5 1542.5,622.5C 1542.33,698.834 1542.5,775.167 1543,851.5C 1546,898.826 1569.83,930.326 1614.5,946C 1623.63,948.799 1632.96,949.966 1642.5,949.5C 1642.5,973.5 1642.5,997.5 1642.5,1021.5C 1581.02,1020.35 1532.85,994.682 1498,944.5C 1483.57,921.541 1474.9,896.541 1472,869.5C 1471.5,787.167 1471.33,704.834 1471.5,622.5C 1451.17,622.5 1430.83,622.5 1410.5,622.5C 1410.5,598.833 1410.5,575.167 1410.5,551.5C 1430.83,551.5 1451.17,551.5 1471.5,551.5C 1471.5,518.167 1471.5,484.833 1471.5,451.5 Z"/></g>
<g><path style="opacity:0.999" fill="#fec856" d="M 348.5,551.5 C 392.5,551.5 436.5,551.5 480.5,551.5C 480.5,684.5 480.5,817.5 480.5,950.5C 501.5,950.5 522.5,950.5 543.5,950.5C 543.5,974.167 543.5,997.833 543.5,1021.5C 478.5,1021.5 413.5,1021.5 348.5,1021.5C 348.5,997.833 348.5,974.167 348.5,950.5C 368.833,950.5 389.167,950.5 409.5,950.5C 409.5,841.167 409.5,731.833 409.5,622.5C 389.167,622.5 368.833,622.5 348.5,622.5C 348.5,598.833 348.5,575.167 348.5,551.5 Z"/></g>
<g><path style="opacity:0.999" fill="#fec856" d="M 1186.5,551.5 C 1230.5,551.5 1274.5,551.5 1318.5,551.5C 1318.5,684.5 1318.5,817.5 1318.5,950.5C 1339.5,950.5 1360.5,950.5 1381.5,950.5C 1381.5,974.167 1381.5,997.833 1381.5,1021.5C 1316.5,1021.5 1251.5,1021.5 1186.5,1021.5C 1186.5,997.833 1186.5,974.167 1186.5,950.5C 1206.83,950.5 1227.17,950.5 1247.5,950.5C 1247.5,841.167 1247.5,731.833 1247.5,622.5C 1227.17,622.5 1206.83,622.5 1186.5,622.5C 1186.5,598.833 1186.5,575.167 1186.5,551.5 Z"/></g>
<g><path style="opacity:0.999" fill="#fec856" d="M 1738.5,551.5 C 1782.5,551.5 1826.5,551.5 1870.5,551.5C 1870.5,684.5 1870.5,817.5 1870.5,950.5C 1891.5,950.5 1912.5,950.5 1933.5,950.5C 1933.5,974.167 1933.5,997.833 1933.5,1021.5C 1868.5,1021.5 1803.5,1021.5 1738.5,1021.5C 1738.5,997.833 1738.5,974.167 1738.5,950.5C 1758.83,950.5 1779.17,950.5 1799.5,950.5C 1799.5,841.167 1799.5,731.833 1799.5,622.5C 1779.17,622.5 1758.83,622.5 1738.5,622.5C 1738.5,598.833 1738.5,575.167 1738.5,551.5 Z"/></g>
<g><path style="opacity:0.995" fill="#fec856" d="M 1238.5,1055.5 C 1262.17,1055.5 1285.83,1055.5 1309.5,1055.5C 1309.5,1088.83 1309.5,1122.17 1309.5,1155.5C 1344.5,1155.5 1379.5,1155.5 1414.5,1155.5C 1414.5,1179.17 1414.5,1202.83 1414.5,1226.5C 1379.5,1226.5 1344.5,1226.5 1309.5,1226.5C 1309.33,1302.83 1309.5,1379.17 1310,1455.5C 1313,1502.83 1336.83,1534.33 1381.5,1550C 1390.63,1552.8 1399.96,1553.97 1409.5,1553.5C 1409.5,1577.5 1409.5,1601.5 1409.5,1625.5C 1348.02,1624.35 1299.85,1598.68 1265,1548.5C 1250.57,1525.54 1241.9,1500.54 1239,1473.5C 1238.5,1391.17 1238.33,1308.83 1238.5,1226.5C 1218.17,1226.5 1197.83,1226.5 1177.5,1226.5C 1177.5,1202.83 1177.5,1179.17 1177.5,1155.5C 1197.83,1155.5 1218.17,1155.5 1238.5,1155.5C 1238.5,1122.17 1238.5,1088.83 1238.5,1055.5 Z"/></g>
<g><path style="opacity:0.987" fill="#fec856" d="M 882.5,1154.5 C 996.631,1153.55 1077.3,1204.72 1124.5,1308C 1117.02,1312.57 1109.36,1316.91 1101.5,1321C 990.677,1376.91 880.011,1433.08 769.5,1489.5C 799.486,1528.5 839.152,1550.33 888.5,1555C 956.955,1555.86 1009.12,1527.36 1045,1469.5C 1049.18,1460.47 1053.35,1451.47 1057.5,1442.5C 1079.56,1449.63 1101.56,1456.97 1123.5,1464.5C 1124.61,1465.72 1124.78,1467.06 1124,1468.5C 1094.9,1545.27 1041.07,1595.43 962.5,1619C 885.145,1637.93 814.812,1623.6 751.5,1576C 685.147,1518.64 656.647,1446.14 666,1358.5C 680.37,1272.49 726.87,1210.99 805.5,1174C 830.303,1163.55 855.969,1157.05 882.5,1154.5 Z M 889.5,1226.5 C 941.432,1225.3 985.432,1243.13 1021.5,1280C 927.433,1327.45 833.599,1375.28 740,1423.5C 728.572,1359.87 747.072,1306.7 795.5,1264C 823.127,1242.18 854.461,1229.68 889.5,1226.5 Z"/></g>
<g><path style="opacity:0.994" fill="#fec856" d="M 214.5,1155.5 C 340.833,1155.5 467.167,1155.5 593.5,1155.5C 593.667,1171.84 593.5,1188.17 593,1204.5C 499.167,1322.33 405.333,1440.17 311.5,1558C 381.499,1558.5 451.499,1558.67 521.5,1558.5C 521.5,1537.83 521.5,1517.17 521.5,1496.5C 545.5,1496.5 569.5,1496.5 593.5,1496.5C 593.5,1540.83 593.5,1585.17 593.5,1629.5C 467.167,1629.5 340.833,1629.5 214.5,1629.5C 214.021,1606.74 214.521,1584.08 216,1561.5C 304.833,1450 393.667,1338.5 482.5,1227C 416.834,1226.5 351.168,1226.33 285.5,1226.5C 285.5,1247.17 285.5,1267.83 285.5,1288.5C 261.833,1288.5 238.167,1288.5 214.5,1288.5C 214.5,1244.17 214.5,1199.83 214.5,1155.5 Z"/></g>
<g><path style="opacity:0.992" fill="#fec856" d="M 1505.5,1155.5 C 1549.5,1155.5 1593.5,1155.5 1637.5,1155.5C 1637.33,1254.83 1637.5,1354.17 1638,1453.5C 1640.15,1487.98 1654.99,1515.48 1682.5,1536C 1713.78,1555.53 1746.78,1558.87 1781.5,1546C 1817.77,1528.38 1838.61,1499.55 1844,1459.5C 1844.5,1381.83 1844.67,1304.17 1844.5,1226.5C 1823.83,1226.5 1803.17,1226.5 1782.5,1226.5C 1782.5,1202.83 1782.5,1179.17 1782.5,1155.5C 1827.17,1155.5 1871.83,1155.5 1916.5,1155.5C 1916.5,1288.5 1916.5,1421.5 1916.5,1554.5C 1936.83,1554.5 1957.17,1554.5 1977.5,1554.5C 1977.5,1578.17 1977.5,1601.83 1977.5,1625.5C 1933.17,1625.5 1888.83,1625.5 1844.5,1625.5C 1844.83,1614.81 1844.5,1604.15 1843.5,1593.5C 1797.93,1624.54 1748.27,1633.37 1694.5,1620C 1621.25,1596.32 1578.75,1546.48 1567,1470.5C 1566.5,1389.17 1566.33,1307.83 1566.5,1226.5C 1546.17,1226.5 1525.83,1226.5 1505.5,1226.5C 1505.5,1202.83 1505.5,1179.17 1505.5,1155.5 Z"/></g>
</svg>
