<?xml version="1.0" encoding="UTF-8"?>
<!DOCTYPE svg PUBLIC "-//W3C//DTD SVG 1.1//EN" "http://www.w3.org/Graphics/SVG/1.1/DTD/svg11.dtd">
<svg xmlns="http://www.w3.org/2000/svg" version="1.1" width="1860px" height="1158px" style="shape-rendering:geometricPrecision; text-rendering:geometricPrecision; image-rendering:optimizeQuality; fill-rule:evenodd; clip-rule:evenodd" xmlns:xlink="http://www.w3.org/1999/xlink">
<g><path style="opacity:0.987" fill="#f0713f" d="M 601.5,25.5 C 640.5,25.5 679.5,25.5 718.5,25.5C 718.333,128.167 718.5,230.834 719,333.5C 777.222,283.644 835.722,234.144 894.5,185C 927.498,184.5 960.498,184.333 993.5,184.5C 993.5,205.167 993.5,225.833 993.5,246.5C 968.831,246.333 944.164,246.5 919.5,247C 884.328,276.675 849.328,306.509 814.5,336.5C 858.291,402.581 901.958,468.748 945.5,535C 968.498,535.5 991.498,535.667 1014.5,535.5C 1014.5,556.167 1014.5,576.833 1014.5,597.5C 979.832,597.667 945.165,597.5 910.5,597C 862,523.833 813.5,450.667 765,377.5C 749.981,390.687 734.814,403.687 719.5,416.5C 718.5,456.161 718.167,495.828 718.5,535.5C 736.5,535.5 754.5,535.5 772.5,535.5C 772.5,556.167 772.5,576.833 772.5,597.5C 715.5,597.5 658.5,597.5 601.5,597.5C 601.5,576.833 601.5,556.167 601.5,535.5C 619.167,535.5 636.833,535.5 654.5,535.5C 654.5,386.167 654.5,236.833 654.5,87.5C 636.833,87.5 619.167,87.5 601.5,87.5C 601.5,66.8333 601.5,46.1667 601.5,25.5 Z"/></g>
<g><path style="opacity:0.988" fill="#f0713f" d="M 409.5,81.5 C 431.167,81.5 452.833,81.5 474.5,81.5C 474.5,103.167 474.5,124.833 474.5,146.5C 452.833,146.5 431.167,146.5 409.5,146.5C 409.5,124.833 409.5,103.167 409.5,81.5 Z"/></g>
<g><path style="opacity:0.988" fill="#f0713f" d="M 1145.5,81.5 C 1167.17,81.5 1188.83,81.5 1210.5,81.5C 1210.5,103.167 1210.5,124.833 1210.5,146.5C 1188.83,146.5 1167.17,146.5 1145.5,146.5C 1145.5,124.833 1145.5,103.167 1145.5,81.5 Z"/></g>
<g><path style="opacity:0.988" fill="#f0713f" d="M 1631.5,81.5 C 1653.17,81.5 1674.83,81.5 1696.5,81.5C 1696.5,103.167 1696.5,124.833 1696.5,146.5C 1674.83,146.5 1653.17,146.5 1631.5,146.5C 1631.5,124.833 1631.5,103.167 1631.5,81.5 Z"/></g>
<g><path style="opacity:0.985" fill="#f0713f" d="M 122.5,96.5 C 143.833,96.5 165.167,96.5 186.5,96.5C 186.5,125.833 186.5,155.167 186.5,184.5C 216.833,184.5 247.167,184.5 277.5,184.5C 277.5,205.167 277.5,225.833 277.5,246.5C 247.167,246.5 216.833,246.5 186.5,246.5C 186.333,317.834 186.5,389.167 187,460.5C 197.273,506.944 226.106,531.611 273.5,534.5C 273.5,555.5 273.5,576.5 273.5,597.5C 218.298,596.489 175.465,573.156 145,527.5C 131.641,506.088 124.307,482.754 123,457.5C 122.5,387.167 122.333,316.834 122.5,246.5C 104.833,246.5 87.1667,246.5 69.5,246.5C 69.5,225.833 69.5,205.167 69.5,184.5C 87.1667,184.5 104.833,184.5 122.5,184.5C 122.5,155.167 122.5,125.833 122.5,96.5 Z"/></g>
<g><path style="opacity:0.985" fill="#f0713f" d="M 1343.5,96.5 C 1364.83,96.5 1386.17,96.5 1407.5,96.5C 1407.5,125.833 1407.5,155.167 1407.5,184.5C 1437.83,184.5 1468.17,184.5 1498.5,184.5C 1498.5,205.167 1498.5,225.833 1498.5,246.5C 1468.17,246.5 1437.83,246.5 1407.5,246.5C 1407.33,317.834 1407.5,389.167 1408,460.5C 1418.27,506.944 1447.11,531.611 1494.5,534.5C 1494.5,555.5 1494.5,576.5 1494.5,597.5C 1439.3,596.489 1396.47,573.156 1366,527.5C 1352.64,506.088 1345.31,482.754 1344,457.5C 1343.5,387.167 1343.33,316.834 1343.5,246.5C 1325.83,246.5 1308.17,246.5 1290.5,246.5C 1290.5,225.833 1290.5,205.167 1290.5,184.5C 1308.17,184.5 1325.83,184.5 1343.5,184.5C 1343.5,155.167 1343.5,125.833 1343.5,96.5 Z"/></g>
<g><path style="opacity:0.986" fill="#f0713f" d="M 357.5,184.5 C 396.5,184.5 435.5,184.5 474.5,184.5C 474.5,301.5 474.5,418.5 474.5,535.5C 492.5,535.5 510.5,535.5 528.5,535.5C 528.5,556.167 528.5,576.833 528.5,597.5C 471.5,597.5 414.5,597.5 357.5,597.5C 357.5,576.833 357.5,556.167 357.5,535.5C 375.167,535.5 392.833,535.5 410.5,535.5C 410.5,439.167 410.5,342.833 410.5,246.5C 392.833,246.5 375.167,246.5 357.5,246.5C 357.5,225.833 357.5,205.167 357.5,184.5 Z"/></g>
<g><path style="opacity:0.986" fill="#f0713f" d="M 1093.5,184.5 C 1132.5,184.5 1171.5,184.5 1210.5,184.5C 1210.5,301.5 1210.5,418.5 1210.5,535.5C 1228.5,535.5 1246.5,535.5 1264.5,535.5C 1264.5,556.167 1264.5,576.833 1264.5,597.5C 1207.5,597.5 1150.5,597.5 1093.5,597.5C 1093.5,576.833 1093.5,556.167 1093.5,535.5C 1111.17,535.5 1128.83,535.5 1146.5,535.5C 1146.5,439.167 1146.5,342.833 1146.5,246.5C 1128.83,246.5 1111.17,246.5 1093.5,246.5C 1093.5,225.833 1093.5,205.167 1093.5,184.5 Z"/></g>
<g><path style="opacity:0.986" fill="#f0713f" d="M 1579.5,184.5 C 1618.5,184.5 1657.5,184.5 1696.5,184.5C 1696.5,301.5 1696.5,418.5 1696.5,535.5C 1714.5,535.5 1732.5,535.5 1750.5,535.5C 1750.5,556.167 1750.5,576.833 1750.5,597.5C 1693.5,597.5 1636.5,597.5 1579.5,597.5C 1579.5,576.833 1579.5,556.167 1579.5,535.5C 1597.17,535.5 1614.83,535.5 1632.5,535.5C 1632.5,439.167 1632.5,342.833 1632.5,246.5C 1614.83,246.5 1597.17,246.5 1579.5,246.5C 1579.5,225.833 1579.5,205.167 1579.5,184.5 Z"/></g>
<g><path style="opacity:0.985" fill="#f0713f" d="M 1138.5,627.5 C 1159.83,627.5 1181.17,627.5 1202.5,627.5C 1202.5,656.833 1202.5,686.167 1202.5,715.5C 1232.83,715.5 1263.17,715.5 1293.5,715.5C 1293.5,736.167 1293.5,756.833 1293.5,777.5C 1263.17,777.5 1232.83,777.5 1202.5,777.5C 1202.33,848.834 1202.5,920.167 1203,991.5C 1213.27,1037.94 1242.11,1062.61 1289.5,1065.5C 1289.5,1086.5 1289.5,1107.5 1289.5,1128.5C 1234.3,1127.49 1191.47,1104.16 1161,1058.5C 1147.64,1037.09 1140.31,1013.75 1139,988.5C 1138.5,918.167 1138.33,847.834 1138.5,777.5C 1120.83,777.5 1103.17,777.5 1085.5,777.5C 1085.5,756.833 1085.5,736.167 1085.5,715.5C 1103.17,715.5 1120.83,715.5 1138.5,715.5C 1138.5,686.167 1138.5,656.833 1138.5,627.5 Z"/></g>
<g><path style="opacity:0.985" fill="#f0713f" d="M 832.5,714.5 C 901.004,714.256 957.838,739.589 1003,790.5C 1016.8,809.247 1028.96,829.081 1039.5,850C 935.323,903.256 830.989,956.256 726.5,1009C 765.789,1057.65 816.122,1075.32 877.5,1062C 927.019,1047.15 961.186,1015.65 980,967.5C 999.347,974.393 1018.85,980.893 1038.5,987C 1038.96,987.414 1039.29,987.914 1039.5,988.5C 1014.28,1057.22 966.617,1102.05 896.5,1123C 827.747,1139.65 765.414,1126.65 709.5,1084C 651.694,1033.18 627.194,969.347 636,892.5C 648.754,818.44 688.92,765.273 756.5,733C 780.885,722.403 806.218,716.236 832.5,714.5 Z M 828.5,778.5 C 874.724,776.29 914.224,791.29 947,823.5C 947.667,824.167 947.667,824.833 947,825.5C 865.045,867.727 782.879,909.227 700.5,950C 691.149,895.711 706.816,850.045 747.5,813C 771.243,793.794 798.243,782.294 828.5,778.5 Z"/></g>
<g><path style="opacity:0.992" fill="#f0713f" d="M 240.5,715.5 C 351.5,715.5 462.5,715.5 573.5,715.5C 573.967,730.597 573.467,745.597 572,760.5C 490.046,862.909 408.213,965.409 326.5,1068C 387.832,1068.5 449.166,1068.67 510.5,1068.5C 510.5,1050.5 510.5,1032.5 510.5,1014.5C 531.5,1014.5 552.5,1014.5 573.5,1014.5C 573.5,1053.5 573.5,1092.5 573.5,1131.5C 462.5,1131.5 351.5,1131.5 240.5,1131.5C 240.333,1111.83 240.5,1092.16 241,1072.5C 319.38,974.242 397.88,876.075 476.5,778C 418.834,777.5 361.168,777.333 303.5,777.5C 303.5,795.833 303.5,814.167 303.5,832.5C 282.5,832.5 261.5,832.5 240.5,832.5C 240.5,793.5 240.5,754.5 240.5,715.5 Z"/></g>
<g><path style="opacity:0.988" fill="#f0713f" d="M 1373.5,715.5 C 1412.5,715.5 1451.5,715.5 1490.5,715.5C 1490.33,806.501 1490.5,897.501 1491,988.5C 1498.97,1028.14 1522.47,1053.31 1561.5,1064C 1615.86,1070.75 1651.69,1048.25 1669,996.5C 1669.91,992.205 1670.58,987.872 1671,983.5C 1671.5,914.834 1671.67,846.167 1671.5,777.5C 1653.17,777.5 1634.83,777.5 1616.5,777.5C 1616.5,756.833 1616.5,736.167 1616.5,715.5C 1655.83,715.5 1695.17,715.5 1734.5,715.5C 1734.5,832.5 1734.5,949.5 1734.5,1066.5C 1752.5,1066.5 1770.5,1066.5 1788.5,1066.5C 1788.5,1087.17 1788.5,1107.83 1788.5,1128.5C 1749.5,1128.5 1710.5,1128.5 1671.5,1128.5C 1671.67,1119.16 1671.5,1109.83 1671,1100.5C 1623.74,1131.73 1573.58,1137.23 1520.5,1117C 1468.6,1093.09 1437.76,1052.92 1428,996.5C 1426.54,923.519 1426.04,850.519 1426.5,777.5C 1408.83,777.5 1391.17,777.5 1373.5,777.5C 1373.5,756.833 1373.5,736.167 1373.5,715.5 Z"/></g>
</svg>
